<svg width="16" height="14" viewBox="0 0 16 14" fill="none" xmlns="http://www.w3.org/2000/svg">
<path fill-rule="evenodd" clip-rule="evenodd" d="M10.6384 0.514806C10.5623 0.476452 10.5 0.515222 10.5 0.600974V11.1467L15.0847 13.4556C15.3131 13.5707 15.5 13.4543 15.5 13.197V3.04564C15.5 2.99507 15.4716 2.94882 15.4267 2.92621L10.6384 0.514806Z" fill="#32FC8D"/>
<path fill-rule="evenodd" clip-rule="evenodd" d="M5.5 8.51719L10.4425 0.579019C10.4873 0.507021 10.5866 0.479042 10.6631 0.51686L15.4373 2.87622C15.4968 2.90559 15.518 2.97907 15.4832 3.03503L10.524 11L5.5 8.51719Z" fill="#0BE370"/>
<path fill-rule="evenodd" clip-rule="evenodd" d="M0.824557 0.568419C0.512577 0.414923 0.406875 0.528524 0.589687 0.820899L5.37868 8.47983L10.5 11L5.41176 2.86243C5.39015 2.82779 5.35907 2.79986 5.32218 2.78165L0.824557 0.568419Z" fill="#14C767"/>
<path fill-rule="evenodd" clip-rule="evenodd" d="M5.5 13.1957C5.5 13.4541 5.31306 13.571 5.08463 13.4554L0.776929 11.2768C0.62461 11.1997 0.5 10.9958 0.5 10.8236V0.702848C0.5 0.530617 0.62461 0.452695 0.776929 0.529729L5.43834 2.88727C5.47611 2.90637 5.5 2.94541 5.5 2.98815V13.1957Z" fill="#00AB6C"/>
</svg>
