<svg width="17" height="12" viewBox="0 0 17 12" fill="none" xmlns="http://www.w3.org/2000/svg">
<path fill-rule="evenodd" clip-rule="evenodd" d="M16.2144 2.98067C16.2144 2.98067 16.0554 1.85402 15.568 1.35789C14.9495 0.706425 14.2563 0.703359 13.9387 0.665549C11.663 0.5 8.24945 0.5 8.24945 0.5H8.24234C8.24234 0.5 4.82878 0.5 2.55307 0.665549C2.23494 0.703359 1.54227 0.706425 0.923287 1.35789C0.435926 1.85402 0.277369 2.98067 0.277369 2.98067C0.277369 2.98067 0.114746 4.30404 0.114746 5.62689V6.86749C0.114746 8.19085 0.277369 9.51371 0.277369 9.51371C0.277369 9.51371 0.435926 10.6404 0.923287 11.1365C1.54227 11.788 2.35488 11.7675 2.71671 11.8355C4.0177 11.9612 8.24589 12 8.24589 12C8.24589 12 11.663 11.9949 13.9387 11.8293C14.2563 11.791 14.9495 11.788 15.568 11.1365C16.0554 10.6404 16.2144 9.51371 16.2144 9.51371C16.2144 9.51371 16.377 8.19085 16.377 6.86749V5.62689C16.377 4.30404 16.2144 2.98067 16.2144 2.98067Z" fill="white"/>
</svg>
